<?xml version="1.0" encoding="UTF-8" standalone="no"?>
<svg
   viewBox="0 0 512 512"
   style="height: 512px; width: 512px;"
   version="1.1"
   id="svg188"
   sodipodi:docname="icon.svg"
   inkscape:version="1.2 (1:1.2.1+202207142221+cd75a1ee6d)"
   inkscape:export-filename="icon.png"
   inkscape:export-xdpi="300"
   inkscape:export-ydpi="300"
   xmlns:inkscape="http://www.inkscape.org/namespaces/inkscape"
   xmlns:sodipodi="http://sodipodi.sourceforge.net/DTD/sodipodi-0.dtd"
   xmlns="http://www.w3.org/2000/svg"
   xmlns:svg="http://www.w3.org/2000/svg">
  <defs
     id="defs192" />
  <sodipodi:namedview
     id="namedview190"
     pagecolor="#ffffff"
     bordercolor="#666666"
     borderopacity="1.0"
     inkscape:showpageshadow="2"
     inkscape:pageopacity="0.0"
     inkscape:pagecheckerboard="0"
     inkscape:deskcolor="#d1d1d1"
     showgrid="false"
     inkscape:zoom="1"
     inkscape:cx="149"
     inkscape:cy="262.5"
     inkscape:window-width="1920"
     inkscape:window-height="1027"
     inkscape:window-x="0"
     inkscape:window-y="29"
     inkscape:window-maximized="1"
     inkscape:current-layer="svg188" />
  <g
     class=""
     transform="translate(0,0)"
     style="stroke:#ffffff;stroke-opacity:1;stroke-width:10.003;stroke-dasharray:none;stroke-dashoffset:251.07530651;stroke-linejoin:round;opacity:1"
     id="g186">
    <path
       d="M250.882 22.802c-23.366 3.035-44.553 30.444-44.553 65.935 0 19.558 6.771 36.856 16.695 48.815l11.84 14.263-18.217 3.424c-12.9 2.425-22.358 9.24-30.443 20.336-8.085 11.097-14.266 26.558-18.598 44.375-7.843 32.28-9.568 71.693-9.842 106.436h42.868l11.771 157.836c29.894 6.748 61.811 6.51 90.602.025l10.414-157.86h40.816c-.027-35.169-.477-75.126-7.584-107.65-3.918-17.934-9.858-33.372-18.04-44.343-8.185-10.97-18.08-17.745-32.563-19.989l-18.592-2.88 11.736-14.704c9.495-11.897 15.932-28.997 15.932-48.082 0-37.838-23.655-65.844-49.399-65.844z"
       fill="#000000"
       fill-opacity="1"
       id="path184"
       style="stroke:#ffffff;stroke-opacity:1;stroke-width:10.003;stroke-dasharray:none;stroke-dashoffset:251.07530651;stroke-linejoin:round" />
  </g>
  <rect
     style="height:512px;width:512px;opacity:1;fill:#ffffff;fill-opacity:1;stroke:none;stroke-width:2;stroke-linejoin:round;stroke-dasharray:none;stroke-dashoffset:251.075;stroke-opacity:1"
     id="rect1134"
     width="110.53794"
     height="63.189377"
     x="200.181"
     y="383.8064" />
  <text
     xml:space="preserve"
     style="font-style:normal;font-weight:normal;font-size:79.3614px;line-height:1.25;font-family:sans-serif;fill:#000000;fill-opacity:1;stroke:#ffffff;stroke-width:2;stroke-dasharray:none;stroke-opacity:1"
     x="40.595604"
     y="443.78836"
     id="text1026"><tspan
       sodipodi:role="line"
       id="tspan1024"
       x="40.595604"
       y="443.78836"
       style="fill:#000000;fill-opacity:1;stroke:#ffffff;stroke-width:2;stroke-dasharray:none;stroke-opacity:1">CONTACTS</tspan></text>
</svg>
